# xmcd
#
# Track frame offsets:
#  150
#  3577
#  25700
#  43997
#  69545
#  90300
#  106805
#  130715
#  172235
#  191525
#  221085
#
# Disc length: 3331 seconds
#
# Revision: 0
# Processed by: cddbd v1.5.2PL0 Copyright (c) Steve Scherf et al.
# Submitted via: Collectorz.com_Music_Collector 6.11
#
DISCID=930d010b
DTITLE=Eric Clapton - The Spiritual Tools (2CDs) [CD1)
DYEAR=2000
DGENRE=Blues
TTITLE0=Introduction
TTITLE1=Reconsider Baby
TTITLE2=Hoochie Coochie Man
TTITLE3=Knockin' On Heaven's Door
TTITLE4=Rollin' Man
TTITLE5=Someday After A While
TTITLE6=Cocaine
TTITLE7=Five Long Years
TTITLE8=You'll Never Walk Alone
TTITLE9=Sunshine Of Your Love
TTITLE10=Everyday I Have The Blues
EXTD=
EXTT0=
EXTT1=
EXTT2=
EXTT3=
EXTT4=
EXTT5=
EXTT6=
EXTT7=
EXTT8=
EXTT9=
EXTT10=
PLAYORDER=
